<svg xmlns="http://www.w3.org/2000/svg" height="1024" preserveAspectRatio="none" style="display: block;" version="1.1" viewBox="0 0 2048 2048" width="1024">
<path d="M 1821.12 146.524 L 1821.38 147.085 C 1819.64 149.796 1810.29 155.501 1806.99 158.04 C 1746.84 204.35 1780.56 290.659 1738.4 346.179 C 1718.62 372.237 1691.8 380.181 1660.73 384.09 C 1666.09 409.536 1648.37 428.257 1627.67 439.788 C 1621.5 460.583 1610.88 457.553 1606.58 463.182 L 1318.12 834.077 C 1323.99 879.053 1340.45 911.563 1368.29 946.636 C 1353.36 942.608 1342.78 939.218 1328.65 933.36 C 1329.03 948.269 1332.02 964.148 1332.27 978.578 C 1333.9 1073.24 1363.5 1161.26 1396.86 1248.92 C 1408.34 1279.09 1420.11 1309.42 1433.4 1339.64 C 1435.25 1339.04 1437.12 1338.52 1439.02 1338.08 C 1478.49 1328.72 1502.44 1360.08 1513.41 1394.48 C 1514.35 1397.4 1513.41 1399.84 1511.76 1402.21 C 1507.46 1403.63 1503.14 1404.23 1498.65 1404.6 C 1484.62 1405.74 1386.06 1406.75 1381.06 1403.18 C 1379.19 1401.84 1377.86 1399.02 1376.86 1397.02 C 1371.22 1385.69 1366.68 1373.72 1361.37 1362.21 C 1354.66 1347.68 1347.1 1333.53 1339.66 1319.36 C 1301.22 1246.1 1264.97 1182.21 1201.03 1127.69 C 1193.43 1134.34 1185.48 1141.48 1176.57 1146.23 C 1191.19 1210.25 1215.27 1290 1240.19 1350.61 C 1280.97 1346.03 1311.83 1385.18 1310.13 1422.3 C 1309.35 1439.27 1212.63 1431.61 1199.17 1429.93 C 1190.02 1428.78 1179.17 1408.7 1174.46 1401.39 C 1149.18 1401.8 1124.18 1402.64 1098.84 1402.92 C 1073.81 1403.21 1046.22 1402.4 1021.46 1403.64 C 1021.55 1408.18 1021.98 1415.06 1018.8 1418.37 C 1008.14 1429.48 973.443 1432.37 959.704 1432.59 C 896.262 1433.61 773.824 1445.8 720.726 1409.34 C 601.095 1414.81 486.336 1406.77 381.007 1344.6 C 295.42 1294.09 243.557 1219.25 242.773 1117.85 C 241.989 1016.62 287.169 936.564 338.009 853.08 C 370.771 800.11 435.317 711.593 409.018 646.429 C 394.822 611.254 347.466 583.813 313.494 570.261 C 420.777 564.099 503.235 596.618 573.005 679.499 C 602.496 714.531 623.177 756.864 627.949 802.379 C 636.703 885.857 592.85 954.542 557.058 1025.4 C 522.523 1095.68 514.525 1192.89 569.1 1255.62 C 599.15 1290.16 634.062 1307.42 679.821 1311.43 C 674.928 1291.87 672.231 1271.3 670.558 1251.41 C 658.197 1104.45 722.32 966.968 836.761 875.343 C 884.206 837.357 927.968 813.442 968.157 765.98 C 960.134 764.128 953.231 762.376 945.332 760.074 C 960.81 750.927 973.823 744.889 989.334 736.484 C 962.692 733.079 934.649 731.918 907.703 728.518 C 943.801 706.255 973.708 674.984 1000.44 642.331 C 997.481 642.204 994.525 642.138 991.568 642.134 C 956.388 642.234 936.445 651.95 912.443 675.945 C 925.603 613.311 956.087 571.779 1002.98 529.585 C 1008.54 522.478 1031.11 509.628 1034.85 503.008 C 1053.89 469.303 1070.03 435.018 1093.68 403.639 C 1111.71 379.704 1167.67 299.384 1201.97 323.779 C 1220.18 336.723 1228.49 411.44 1231.2 435.04 C 1268.37 440.774 1286.36 455.677 1310.76 481.634 C 1350.74 489.323 1406.29 447.76 1445.73 441.239 C 1467.76 437.597 1466.25 457.219 1467.99 473.338 C 1486.43 451.698 1508.43 421.191 1526.04 398.372 C 1524.59 383.217 1534.61 382.367 1541.61 367.911 C 1540.84 355.006 1551.66 341.13 1560.08 331.563 L 1561.31 330.183 C 1564.84 326.134 1566.23 325.959 1571.52 324.438 L 1573.08 323.998 C 1573.9 322.031 1570.07 305.998 1570.13 300.83 C 1571.15 218.871 1687.85 169.579 1756.01 152.879 C 1774.08 148.453 1803.08 147.06 1821.12 146.524 z" fill="rgb(44,48,59)" transform="translate(0,0)"></path>
<path d="M 945.667 631.638 C 976.206 568.22 1038.01 519.295 1100.44 489.604 C 1147.62 467.165 1219.37 435.314 1268.36 469.102 C 1281.05 477.859 1294.82 494.821 1307.59 498.45 C 1331.01 505.104 1367.29 491.419 1387.44 480.878 C 1405.54 495.77 1433.47 494.873 1455.91 495.191 C 1450.84 533.027 1434.88 557.865 1403.55 580.616 C 1370.3 604.767 1307.59 646.931 1265.91 641.956 C 1240.77 638.956 1222 620.591 1207.74 601.637 C 1211.59 622.059 1214.87 630.905 1230.29 645.177 C 1260.3 664.351 1282.96 663.272 1315.48 650.673 C 1306.27 670.291 1292.74 693.759 1290.44 715.082 C 1288.1 736.81 1279.3 744.158 1266.57 760.879 C 1256.99 779.129 1242.62 794.756 1231.57 811.935 C 1210.9 844.614 1186.89 875.34 1166.35 908.075 C 1160.35 917.648 1154.44 934.284 1149.82 945.233 C 1138.51 972.042 1122.58 1001.62 1114.48 1029.53 C 1125.16 1024.26 1131.74 1019.02 1141.6 1012.65 C 1144.9 1111.81 1165.31 1200.79 1197.91 1294.41 C 1204.6 1313.63 1217.81 1352.95 1227.44 1370.12 C 1267.38 1368.99 1276.3 1373.61 1291.11 1412.28 C 1284.41 1413.3 1279.46 1414.17 1272.67 1414.25 C 1263.79 1396.56 1259.38 1389.78 1240.61 1381.85 C 1252.26 1393.86 1253.57 1397.97 1258.83 1414.02 C 1247.68 1414.87 1219.44 1415.78 1208.67 1414.2 C 1195.81 1402.4 1177.76 1366.61 1168.41 1350.5 C 1131.08 1286.2 1101.6 1217.51 1067.41 1151.61 C 1037.79 1094.52 1014.72 1026.4 952.378 998.002 C 970.076 1018.29 986.506 1036.39 1001.1 1059.21 C 1012.96 1077.75 1021.05 1095.95 1030.46 1115.73 C 1042.66 1141.18 1054.46 1166.82 1065.83 1192.65 C 1043.4 1219.76 1021.68 1237.93 997.135 1262.95 C 1000.39 1237.12 1001.69 1215.36 994.355 1190.02 C 960.719 1073.78 844.555 1092.57 765.631 1150.89 C 816.093 1133.81 877.866 1104.62 929.161 1131.11 C 985.491 1160.19 993.255 1242.02 965.406 1293.45 C 941.5 1337.6 915.301 1352.19 871.088 1371.39 C 862.301 1375.35 847.978 1381.08 839.98 1385.68 C 886.39 1380.61 943.15 1347.38 985.218 1377.88 C 993.966 1384.23 999.124 1395.52 1001.49 1405.86 C 992.736 1407.12 984.638 1407.97 975.831 1408.82 C 970.509 1397.06 963.35 1381.09 947.893 1380.84 L 946.732 1381.97 C 955.346 1395.56 955.7 1393.2 963.952 1410.49 C 922.723 1415.8 770.433 1421.17 737.52 1396.83 C 722.213 1385.51 704.278 1328.86 699.644 1309.51 C 695.852 1292.96 693.023 1276.2 691.173 1259.32 C 679.524 1151.78 711.103 1044.03 778.954 959.797 C 803.693 929.411 832.007 902.118 863.281 878.51 C 893.664 855.82 928.523 833.552 955.761 806.837 C 966.614 795.807 976.622 785.594 985.914 773.136 C 1049.79 786.445 1128.55 800.541 1188.59 766.764 C 1191.4 764.791 1191.23 765.434 1192.6 762.634 C 1186.73 762.88 1181.5 764.686 1175.76 765.616 C 1122.98 774.162 1066.34 770.161 1014.34 759.032 C 1007.66 757.818 1001 756.488 994.361 755.045 C 998.934 752.196 1015.18 744.557 1020.91 741.802 C 1039.33 732.944 1051.33 726.059 1067.79 714.192 C 1076.34 703.927 1080.54 701.231 1087.79 688.604 C 1036.72 719.342 1015.93 720.133 956.097 715.869 C 1003.72 672.167 1035.04 640.56 1049.51 574.05 C 1034.75 594.603 1032.74 604.414 1012.86 625.464 C 986.51 621.291 970.735 622.664 945.667 631.638 z" fill="rgb(255,255,255)" transform="translate(0,0)"></path>
<path d="M 1188.59 766.764 C 1184.71 780.808 1169.38 792.237 1157.15 799.09 C 1111.95 824.421 1055.42 822.614 1005.38 816.973 C 993.079 815.586 965.879 811.929 955.761 806.837 C 966.614 795.807 976.622 785.594 985.914 773.136 C 1049.79 786.445 1128.55 800.541 1188.59 766.764 z" fill="rgb(222,220,220)" transform="translate(0,0)"></path>
<path d="M 1230.29 645.177 C 1260.3 664.351 1282.96 663.272 1315.48 650.673 C 1306.27 670.291 1292.74 693.759 1290.44 715.082 C 1288.1 736.81 1279.3 744.158 1266.57 760.879 C 1267.36 752.912 1277.57 728.319 1280.1 717.987 C 1282.9 706.526 1285.08 690.821 1288.69 680.472 C 1268.89 676.764 1238.51 665.363 1230.29 645.177 z" fill="rgb(222,220,220)" transform="translate(0,0)"></path>
<path d="M 994.361 755.045 C 998.934 752.196 1015.18 744.557 1020.91 741.802 C 1039.33 732.944 1051.33 726.059 1067.79 714.192 C 1064.54 726.248 1045.16 741.926 1034.33 747.791 C 1031.49 749.328 1015.66 757.796 1014.34 759.032 C 1007.66 757.818 1001 756.488 994.361 755.045 z" fill="rgb(222,220,220)" transform="translate(0,0)"></path>
<path d="M 1123.35 539.42 C 1134.8 536.502 1146.94 539.985 1155.11 548.533 C 1163.27 557.081 1166.2 569.366 1162.77 580.678 C 1159.33 591.99 1150.06 600.571 1138.52 603.132 C 1121.06 607.007 1103.71 596.151 1099.57 578.748 C 1095.42 561.345 1106.01 543.835 1123.35 539.42 z" fill="rgb(232,106,133)" transform="translate(0,0)"></path>
<path d="M 1208.19 507.189 C 1231.03 506.306 1253.16 525.687 1257.05 547.712 C 1257.48 550.198 1257.32 549.973 1255.91 551.806 C 1250.06 551.934 1234.74 535.672 1223.59 532.066 C 1194.62 527.434 1190.84 550.279 1182.21 553.79 L 1179.96 552.757 C 1176.71 548.737 1176.19 545.631 1174.68 540.69 C 1178.99 520.222 1187.67 511.808 1208.19 507.189 z" fill="rgb(44,48,59)" transform="translate(0,0)"></path>
<path d="M 387.553 591.212 C 487.717 601.874 602.565 706.26 609.006 809.336 C 616.652 931.701 514.201 1007.14 510.183 1128.87 C 506.637 1236.32 573.812 1326.79 685.498 1331.17 C 692.603 1355.79 697.234 1367.22 708.766 1389.85 C 682.891 1390.48 659.238 1391.11 633.351 1390.75 C 495.476 1385.79 319.487 1335.49 272.603 1186.89 C 235.163 1068.22 302.931 945.824 364.159 848.897 C 395.168 799.807 436.093 735.286 435.637 676.112 C 435.319 634.308 414.666 616.682 387.553 591.212 z" fill="rgb(255,255,255)" transform="translate(0,0)"></path>
<path d="M 311.037 1136.84 C 319.459 1150.54 326.378 1164.49 335.52 1177.93 C 355.462 1207.26 379.503 1230.75 405.857 1254.14 C 398.073 1251.66 382.389 1241.38 375.912 1236.25 C 341.659 1209.15 317.24 1180.69 311.037 1136.84 z" fill="rgb(44,48,59)" transform="translate(0,0)"></path>
<path d="M 1542.94 404.385 C 1556.74 409.112 1563.68 412.005 1574.92 421.148 C 1584.68 432.622 1589.2 439.88 1594 454.021 C 1490.14 582.268 1393.63 719.12 1286.71 845.104 C 1266.49 868.933 1244.52 895.445 1223.42 918.178 C 1219.68 914.834 1211.78 908.223 1208.6 904.91 C 1203.76 901.569 1199.54 897.791 1195.06 893.981 C 1232.9 838.34 1271.61 785.481 1309.56 730.681 L 1362.71 653.407 C 1370.06 642.734 1381.23 624.157 1389.23 615.192 C 1410.03 591.873 1436.13 581.122 1453.66 552.593 C 1467.14 530.67 1468.09 524.762 1471.3 499.692 C 1495.75 469.012 1516.91 435.875 1542.94 404.385 z" fill="rgb(222,220,220)" transform="translate(0,0)"></path>
<path d="M 1542.94 404.385 C 1556.74 409.112 1563.68 412.005 1574.92 421.148 C 1532.23 475.347 1491.44 534.107 1450.13 589.591 C 1410.84 642.36 1368.97 694.125 1329.7 746.672 L 1264.61 834.379 C 1248.22 856.478 1227.29 884.713 1208.6 904.91 C 1203.76 901.569 1199.54 897.791 1195.06 893.981 C 1232.9 838.34 1271.61 785.481 1309.56 730.681 L 1362.71 653.407 C 1370.06 642.734 1381.23 624.157 1389.23 615.192 C 1410.03 591.873 1436.13 581.122 1453.66 552.593 C 1467.14 530.67 1468.09 524.762 1471.3 499.692 C 1495.75 469.012 1516.91 435.875 1542.94 404.385 z" fill="rgb(255,255,255)" transform="translate(0,0)"></path>
<path d="M 1304.36 924.862 L 1308.45 926.107 C 1308.95 926.638 1309.45 927.169 1309.95 927.699 C 1310.25 936.28 1310.76 949.884 1311.1 958.099 C 1311.97 983.803 1313.85 1009.46 1316.73 1035.02 C 1326.68 1117.97 1352.72 1194.18 1384.53 1270.96 C 1397.43 1302.12 1412.2 1332.44 1422.57 1364.34 C 1435.1 1354.89 1446.3 1348 1462.05 1355.48 C 1473.93 1361.11 1485.41 1375.09 1489.81 1387.28 C 1457.21 1387.58 1424.61 1387.46 1392.02 1386.93 C 1387.79 1379.68 1383.52 1369.31 1380.02 1361.45 C 1356.26 1307.52 1319.04 1234.99 1283.2 1187.76 C 1265.79 1164.83 1236.12 1134.71 1216.02 1112.1 C 1239.01 1083.46 1242.45 1073.11 1252.81 1039.01 C 1256.96 1064.55 1257.52 1071.33 1254.59 1096.77 C 1266.02 1081.74 1276.57 1069.52 1286.17 1053.16 C 1306.84 1017.94 1311.76 979.887 1306.12 939.872 C 1305.42 934.851 1304.09 929.976 1304.36 924.862 z" fill="rgb(222,220,220)" transform="translate(0,0)"></path>
<path d="M 1772.74 166.76 L 1776.87 165.116 L 1777.87 165.657 C 1766.49 181.819 1757.99 194.427 1753.16 214.609 C 1738.78 274.736 1754.12 348.971 1673.29 363.467 C 1665.84 364.803 1657.99 365.818 1650.67 363.452 L 1649.1 361.684 C 1651.19 356.603 1668.07 349.189 1674.92 343.726 C 1686.17 334.754 1710.69 298.182 1710.68 285.413 C 1708.39 287.282 1702.59 300.202 1700.28 303.57 C 1683.95 327.376 1663.52 343.395 1635.76 349.374 C 1630.29 345.817 1624.73 342.262 1619.31 338.637 C 1627.69 316.821 1635.93 295.685 1648.84 275.983 C 1651.16 272.435 1657.79 263.545 1658.94 260.196 C 1656.05 261.64 1652.4 266.743 1649.95 269.398 C 1632.16 288.678 1620.68 309.219 1608.3 332.052 C 1605.72 330.555 1593.18 324.236 1592.47 323.363 C 1560.43 240.024 1709.76 177.663 1772.74 166.76 z" fill="rgb(82,154,157)" transform="translate(0,0)"></path>
<path d="M 1772.74 166.76 C 1764.72 172.96 1743.8 180.888 1733.5 186.333 C 1680.28 214.474 1608.18 245.324 1593.5 310.404 C 1592.65 314.454 1592.93 319.512 1592.47 323.363 C 1560.43 240.024 1709.76 177.663 1772.74 166.76 z" fill="rgb(255,255,255)" transform="translate(0,0)"></path>
<path d="M 1301.3 853.752 C 1301.91 855.631 1303.7 866.825 1304.57 870.392 C 1307.82 884.047 1312.38 897.357 1318.19 910.139 C 1302.08 905.955 1295.12 901.191 1283.27 890.225 C 1283.34 897.828 1284.57 906.224 1285.65 913.836 C 1291.05 951.786 1292.92 1006.61 1271.34 1040.25 C 1270.58 1037.6 1269.76 1034.97 1268.9 1032.35 C 1263.14 1015.03 1251.57 997.452 1234.9 989.042 C 1235.11 990.133 1235.31 991.226 1235.51 992.32 C 1241.7 1026.7 1230.5 1057.69 1211.13 1085.67 C 1199.29 1101.68 1186.03 1115.03 1172.25 1129.34 C 1162.23 1085.77 1159.87 1039.61 1161.21 995.074 C 1176.37 983.017 1193 971.961 1207.74 960.04 C 1221.18 949.169 1235.08 930.977 1246.51 917.745 L 1301.3 853.752 z" fill="rgb(255,255,255)" transform="translate(0,0)"></path>
<path d="M 1075.84 1212.59 C 1079.17 1214.74 1101.98 1264.4 1105.81 1272.37 C 1088.05 1317.07 1077.92 1323.54 1032.86 1343.77 C 1023.42 1348.01 1011.73 1353.34 1003.3 1359.41 L 1002.09 1360.3 C 1051.66 1353.96 1121.9 1320.05 1149.54 1383.44 C 1142.45 1383.94 1133.62 1383.89 1126.39 1384.05 C 1090.91 1385.06 1049.54 1386.22 1014.24 1385.34 C 997.918 1356.49 973.014 1349.17 941.816 1348.4 C 962.986 1329.36 971.922 1320.95 986.481 1296.5 C 988.529 1293.06 1018.27 1268.12 1024.11 1263.03 C 1043.19 1246.42 1058.47 1231.18 1075.84 1212.59 z" fill="rgb(222,220,220)" transform="translate(0,0)"></path>
<path d="M 1182.71 337.951 C 1185.33 337.709 1188.53 337.68 1190.77 339.27 C 1201.87 347.15 1211.44 422.829 1213.9 437.661 C 1197.13 438.004 1184.31 439.231 1167.86 441.455 C 1171.31 415.863 1178.48 376.067 1189.92 353.574 C 1167.15 378.795 1157.92 402.807 1149.31 434.828 L 1146.47 448.896 C 1115.3 459.008 1091.24 473.161 1062.7 488.667 C 1085.74 446.453 1139.82 361.098 1182.71 337.951 z" fill="rgb(255,255,255)" transform="translate(0,0)"></path>
<path d="M 1578.19 340.078 C 1583.36 340.603 1588.45 341.79 1593.32 343.611 C 1617.67 352.431 1637.44 370.683 1648.17 394.25 C 1643.54 402.812 1635.18 411.664 1628.72 419.193 C 1614.25 386.939 1590.86 371.167 1557.82 361.535 C 1564.58 352.351 1568.37 346.425 1578.19 340.078 z" fill="rgb(255,255,255)" transform="translate(0,0)"></path>
<path d="M 1556.14 377.7 C 1581.55 379.274 1608.21 409.33 1614.78 433.105 C 1613.28 436.112 1610.94 441.513 1608.02 442.773 L 1606.82 441.558 C 1593.74 415.386 1573.37 395.334 1543.5 391.355 L 1556.14 377.7 z" fill="rgb(255,255,255)" transform="translate(0,0)"></path>
<path d="M 1117.07 1294.63 C 1125.26 1306.33 1140.36 1334.79 1146.66 1347.73 C 1140 1343.67 1136.34 1341.62 1129.27 1338.4 C 1115.25 1333.22 1107.45 1332.6 1092.78 1330.87 C 1106.23 1318.08 1109.1 1311.32 1117.07 1294.63 z" fill="rgb(255,255,255)" transform="translate(0,0)"></path>
<path d="M 1173.43 921.114 C 1177.47 913.827 1180.34 909.091 1185.05 902.245 C 1189.73 907.53 1195.8 912.691 1201.1 917.439 C 1207.07 922.432 1211.75 926.248 1216.83 932.191 C 1212.7 936.743 1208.47 941.575 1204.02 945.786 C 1202.87 944.764 1193.31 936.401 1192.82 935.775 C 1186.33 931.138 1179.78 925.977 1173.43 921.114 z" fill="rgb(255,255,255)" transform="translate(0,0)"></path>
<path d="M 1201.1 917.439 C 1207.07 922.432 1211.75 926.248 1216.83 932.191 C 1212.7 936.743 1208.47 941.575 1204.02 945.786 C 1202.87 944.764 1193.31 936.401 1192.82 935.775 C 1196.88 932.941 1197.54 923.955 1201.1 917.439 z" fill="rgb(222,220,220)" transform="translate(0,0)"></path>
<path d="M 1153.27 966.792 C 1160.29 954.202 1164.61 946.357 1169.14 932.759 C 1175.44 937.58 1182.21 944.117 1188.13 949.552 L 1193.34 954.972 L 1174.56 968.425 L 1164.39 975.92 C 1159.9 971.486 1158.71 970.32 1153.27 966.792 z" fill="rgb(255,255,255)" transform="translate(0,0)"></path>
<path d="M 1188.13 949.552 L 1193.34 954.972 L 1174.56 968.425 C 1175.69 957.844 1177.88 952.59 1188.13 949.552 z" fill="rgb(222,220,220)" transform="translate(0,0)"></path>
<path d="M 1357.82 628.922 C 1358.47 629.566 1358.11 629.088 1358.39 630.635 C 1351.89 640.209 1338.65 660.46 1331.56 668.216 L 1330.64 667.153 C 1330.49 660.113 1335.75 648.538 1338.45 641.888 C 1345.03 637.856 1351.45 633.31 1357.82 628.922 z" fill="rgb(255,255,255)" transform="translate(0,0)"></path>
<path d="M 750.349 1498.31 C 774.187 1496.42 787.123 1500.17 808.036 1511.13 C 805.595 1518.69 800.203 1529.81 796.815 1537.34 C 782.208 1528.37 761.294 1517.79 743.615 1527.37 C 739.795 1529.44 736.62 1532.87 735.557 1537.18 C 737.77 1554.12 788.809 1555.39 801.65 1571.32 C 808.538 1578.04 811.598 1584.2 812.094 1594.04 C 813.765 1627.15 786.066 1636.84 757.277 1637.04 C 738.707 1636.44 719.627 1629.43 704.273 1619.12 C 708.272 1610.62 712.374 1602.17 716.577 1593.78 C 718.834 1595.51 721.128 1597.19 723.457 1598.82 C 735.952 1607.49 770.97 1619.3 782.828 1602.37 C 783.929 1600.8 783.892 1596.85 783.103 1594.98 C 778.545 1584.19 762.675 1583.44 753.005 1580.4 C 735.078 1575.77 712.611 1569.62 708.44 1548.56 C 705.145 1531.91 710.079 1517.89 723.686 1507.59 C 731.455 1501.72 740.874 1499.72 750.349 1498.31 z" fill="rgb(44,48,59)" transform="translate(0,0)"></path>
<path d="M 867.775 1529.4 C 869.965 1529.26 872.157 1529.18 874.35 1529.16 C 922.525 1528.87 923.064 1562.72 922.985 1598.75 L 922.85 1635.03 C 914.259 1634.91 905.094 1635.78 896.692 1634.73 C 894.523 1632.06 895.252 1630.96 894.984 1626.64 C 893.273 1625.76 860.1 1653.12 829.551 1622.18 C 826.127 1616.97 824.348 1611.19 824.791 1604.93 C 827.381 1568.39 868.046 1571.62 894.09 1575.09 C 893.354 1571.81 892.394 1567.14 890.943 1564.21 C 888.339 1559 883.676 1555.12 878.082 1553.5 C 864.66 1549.6 849.488 1556.58 838.03 1562.92 C 834.703 1555.42 831.767 1549.88 827.802 1542.66 C 840.743 1533.6 852.35 1530.87 867.775 1529.4 z" fill="rgb(44,48,59)" transform="translate(0,0)"></path>
<path d="M 871.06 1589.34 C 876.822 1589.08 887.152 1589.84 893.251 1590.13 C 893.226 1605.5 891.651 1612.15 875.612 1616.92 C 850.385 1617.66 842.194 1594.19 871.06 1589.34 z" fill="rgb(255,255,255)" transform="translate(0,0)"></path>
<path d="M 1055.68 1529.41 C 1069.09 1528.21 1085.38 1531.17 1094.92 1541.22 C 1109.37 1556.44 1107.23 1578.36 1107.2 1597.63 L 1107.07 1634.84 C 1099.48 1634.82 1091.68 1635.13 1084.03 1635.08 C 1074.11 1635 1080.46 1629.37 1077.17 1625.53 C 1055.63 1638.92 1033.84 1643.08 1014.78 1622.21 C 1007.83 1611.01 1006.45 1594.65 1017.17 1585.44 C 1033.1 1571.75 1058.33 1573.88 1077.81 1574.35 C 1072.36 1543.19 1045.89 1552.18 1025.22 1562.22 C 1022 1557.05 1016.89 1550.34 1013.25 1545.15 C 1026.74 1533.07 1038.51 1530.84 1055.68 1529.41 z" fill="rgb(44,48,59)" transform="translate(0,0)"></path>
<path d="M 1056.07 1590.43 C 1061.13 1590.39 1072.25 1590.33 1076.87 1591.5 C 1080.35 1596.18 1079.47 1599.98 1076.17 1604.69 C 1070.64 1612.57 1068.61 1615.14 1059.22 1616.94 C 1034.65 1616.72 1026.44 1593.6 1056.07 1590.43 z" fill="rgb(255,255,255)" transform="translate(0,0)"></path>
<path d="M 1039.33 1841.41 C 1059.5 1839.8 1086.19 1843.3 1106.31 1846.81 C 1083.89 1881.53 1051.46 1906.01 1009.14 1908.96 C 985.799 1912.16 961.837 1907.95 939.493 1901.34 C 969.841 1860.95 987.26 1845.73 1039.33 1841.41 z" fill="rgb(232,106,133)" transform="translate(0,0)"></path>
<path d="M 881.192 1841.41 C 903.925 1839.83 927.177 1843.44 949.386 1848.11 C 945.948 1852.28 942.468 1856.41 938.947 1860.52 C 911.943 1891.72 890.848 1904.56 849.247 1907.55 C 830.802 1909.85 799.449 1904.48 781.601 1900.14 C 808.868 1862.83 834.968 1844.91 881.192 1841.41 z" fill="rgb(82,154,157)" transform="translate(0,0)"></path>
<path d="M 1194.26 1842.4 C 1218.06 1840.71 1236.42 1841.41 1259.95 1846.55 C 1235.12 1886.37 1209.27 1903.37 1162.25 1908.49 C 1141.1 1911.18 1118.28 1906.6 1097.59 1902.44 C 1124.67 1864.12 1146.33 1846.96 1194.26 1842.4 z" fill="rgb(232,106,133)" transform="translate(0,0)"></path>
<path d="M 1216.87 1530.08 L 1246.19 1530.13 C 1246.09 1546.55 1242.81 1598.91 1252.98 1606.04 C 1301.71 1640.18 1290.86 1540.66 1290.9 1530.21 L 1319.18 1530.26 C 1319.38 1541.43 1319.26 1553.04 1319.29 1564.25 L 1319.04 1635.31 C 1312.77 1635.2 1296.55 1636.46 1292.26 1633.31 L 1291.63 1628.42 C 1286.05 1628.54 1276.09 1637.52 1266.27 1637.32 C 1217.44 1636.35 1216.78 1602.98 1216.8 1565.6 L 1216.87 1530.08 z" fill="rgb(44,48,59)" transform="translate(0,0)"></path>
<path d="M 954.072 1530.9 L 983.758 1530.95 L 983.746 1596.84 C 983.767 1628.96 988.725 1666.64 943.414 1667.13 C 935.681 1666.62 922.699 1664.75 919.446 1656.99 C 919.305 1648.61 923.719 1644.8 928.955 1637.7 C 932.683 1639.17 936.841 1641.16 940.822 1641.7 C 944.264 1642.17 947.789 1641.38 950.364 1638.93 C 956.855 1632.76 954.119 1545.32 954.072 1530.9 z" fill="rgb(44,48,59)" transform="translate(0,0)"></path>
<path d="M 1189.98 1529.24 C 1193.4 1529.11 1195.9 1528.51 1198.51 1530.47 C 1202.31 1537.14 1199.47 1549.92 1198.78 1558.67 C 1198.06 1558.64 1197.34 1558.61 1196.61 1558.58 C 1156.38 1557.41 1163.95 1590.11 1163.01 1618.76 C 1162.83 1624.15 1163.03 1629.71 1163.05 1635.11 C 1157.74 1635.12 1137.42 1635.92 1134.43 1633.66 C 1134.4 1599.14 1134.53 1564.63 1134.84 1530.11 L 1163.32 1530.02 L 1163.03 1545.05 C 1171.83 1535.58 1177.09 1531.38 1189.98 1529.24 z" fill="rgb(44,48,59)" transform="translate(0,0)"></path>
<path d="M 829.704 1684.1 C 852.434 1683.81 886.054 1680.72 887.904 1713.06 C 888.475 1723.04 885.189 1729.21 878.553 1736.37 C 864.798 1746.85 846.28 1744.66 829.493 1744.72 C 829.698 1724.52 829.769 1704.31 829.704 1684.1 z" fill="rgb(44,48,59)" transform="translate(0,0)"></path>
<path d="M 841.096 1693.94 C 851.611 1693.82 860.686 1693.24 869.692 1699.73 C 880.965 1707.85 877.621 1719.83 870.203 1729.22 C 860.292 1736.16 852.784 1735.27 840.989 1735.31 L 841.096 1693.94 z" fill="rgb(255,255,255)" transform="translate(0,0)"></path>
<path d="M 1149.91 1684 C 1158.89 1683.56 1161.57 1686.22 1167.21 1692.92 C 1175.65 1702.95 1183.92 1713.79 1192.03 1724.05 C 1192.33 1715.2 1191.8 1692 1193.13 1684.78 C 1195.78 1683.62 1200.89 1684 1204 1684.01 L 1203.94 1744.82 C 1195.3 1745.41 1195.99 1745.31 1190.5 1739.19 C 1180.41 1727.92 1170.66 1716.51 1161.51 1704.47 C 1160.82 1716.66 1161.97 1732.29 1160.51 1743.81 C 1157.59 1745.1 1153.36 1745.4 1150.68 1743.52 C 1149.22 1732.29 1149.97 1697.57 1149.91 1684 z" fill="rgb(44,48,59)" transform="translate(0,0)"></path>
<path d="M 1099.2 1683.15 C 1111.99 1682.53 1116.58 1684.3 1127.45 1690.59 C 1124.69 1693.87 1124.17 1694.51 1120.83 1697.1 C 1112.32 1694.97 1098.85 1689.52 1090.8 1695.75 C 1076.05 1707.18 1079.59 1733.14 1100.45 1734.92 C 1119.85 1736.57 1114 1725.36 1115.06 1711.66 L 1126.96 1711.46 C 1127 1717.45 1127.76 1731.78 1126.09 1736.87 C 1118.09 1746.73 1093.99 1747.78 1084.91 1740.78 C 1058.23 1720.24 1068.52 1689.95 1099.2 1683.15 z" fill="rgb(44,48,59)" transform="translate(0,0)"></path>
<path d="M 909.576 1684.22 C 917.057 1684.2 950.116 1682.65 953.848 1685.56 C 953.797 1690.31 954.478 1688.27 952.199 1692.03 C 945.686 1695.8 928.718 1694.02 920.032 1694.01 L 919.989 1710.01 C 923.164 1709.93 926.34 1709.87 929.517 1709.83 C 936.724 1709.74 945.881 1709.27 951.256 1714.5 C 945.865 1720.77 928.265 1719.2 920.184 1719.05 L 920.102 1734.51 C 929.374 1734.37 949.119 1730.91 954.186 1738.62 C 954.357 1742.65 955.048 1741.24 953.343 1743.98 C 946.162 1745.17 918.375 1744.37 909.044 1744.44 C 909.348 1724.37 909.525 1704.3 909.576 1684.22 z" fill="rgb(44,48,59)" transform="translate(0,0)"></path>
<path d="M 992.18 1683.27 C 1000.06 1682.97 1007.54 1684.93 1015.07 1686.95 C 1013.97 1690.42 1013.21 1692.02 1011.64 1695.33 C 1006.79 1698.49 980.28 1682.84 982.23 1703.11 C 988.605 1712.43 1014.44 1708.88 1016.66 1724.63 C 1018.8 1739.82 1007.66 1744.06 994.685 1745.37 C 984.001 1745.11 979.87 1743.44 970.216 1739.72 C 971.081 1736.34 972.562 1732.74 973.811 1729.45 C 980.661 1733.3 1005.77 1742.95 1005.33 1727.82 C 998.999 1717.48 973.431 1718.48 971.06 1702.56 C 968.967 1688.5 981.583 1685.08 992.18 1683.27 z" fill="rgb(44,48,59)" transform="translate(0,0)"></path>
<path d="M 963.899 1488.19 C 972.344 1487.55 981.102 1488.36 985.471 1496.85 C 986.992 1499.8 987.256 1503.24 986.201 1506.39 C 984.193 1512.53 980.354 1514.84 975.032 1517.72 C 965.845 1518.35 958.094 1517.77 953.336 1508.79 C 947.859 1498.46 955.279 1491.71 963.899 1488.19 z" fill="rgb(44,48,59)" transform="translate(0,0)"></path>
<path d="M 1036.71 1683.85 C 1040.37 1683.71 1044.51 1683 1047.47 1684.8 C 1048.73 1692.01 1047.85 1735.29 1047.79 1745.15 C 1043.21 1745.42 1042.32 1745.58 1037.9 1744.77 C 1035.27 1741.38 1036.65 1691.83 1036.71 1683.85 z" fill="rgb(44,48,59)" transform="translate(0,0)"></path>
</svg>
